# Blender v3.2.1 OBJ File: 'cafeteria.blend'
# www.blender.org
mtllib cafeteria_mtl.mtl
o Cube
v 3.455799 4.112754 -0.808465
v 3.455799 0.889204 -2.415085
v 3.455799 2.506134 2.415085
v 3.455799 -0.717416 0.808465
v -3.475315 4.112754 -0.808465
v -3.475315 0.889204 -2.415085
v -3.475315 2.506134 2.415085
v -3.475315 -0.717416 0.808465
v -0.685262 0.889204 -2.415085
v -0.685262 2.506134 2.415085
v -0.685262 -0.717416 0.808465
v -0.685262 4.112754 -0.808465
v 0.701879 -0.717416 0.808465
v 0.701879 4.112754 -0.808465
v 0.701879 0.889204 -2.415085
v 0.701879 2.506134 2.415085
v 3.455799 2.025181 -1.848913
v -3.475315 0.418561 1.374637
v 3.455799 0.418561 1.374637
v -3.475315 2.025181 -1.848913
v -0.685262 2.025181 -1.848913
v -0.685262 0.418561 1.374637
v 0.701879 0.418561 1.374637
v 0.701879 2.025181 -1.848913
v -0.685262 -0.417658 0.207025
v 0.701879 -0.417658 0.207025
v -0.685262 0.718319 0.773197
v 0.701879 0.718319 0.773197
v -0.887892 0.889204 -2.415085
v -0.887892 2.506134 2.415085
v -0.887892 -0.717416 0.808465
v -0.887892 4.112754 -0.808465
v -0.887892 2.025181 -1.848913
v -0.887892 0.418561 1.374637
v 0.868325 -0.717416 0.808465
v 0.868325 4.112754 -0.808465
v 0.868325 0.889204 -2.415085
v 0.868325 2.506134 2.415085
v 0.868325 0.418561 1.374637
v 0.868325 2.025181 -1.848913
v -2.071834 0.889204 -2.415085
v -2.071834 2.506134 2.415085
v -2.071834 0.418561 1.374637
v -2.071834 -0.717416 0.808465
v -2.071834 4.112754 -0.808465
v -2.071834 2.025181 -1.848913
v -3.286880 0.889204 -2.415085
v -3.286880 2.506134 2.415085
v -3.286880 0.418561 1.374637
v -3.286880 -0.717416 0.808465
v -3.286880 4.112754 -0.808465
v -3.286880 2.025181 -1.848913
v 2.081660 -0.717416 0.808465
v 2.081660 4.112754 -0.808465
v 2.081660 2.025181 -1.848913
v 2.081660 0.889204 -2.415085
v 2.081660 2.506134 2.415085
v 2.081660 0.418561 1.374637
v 3.294995 -0.717416 0.808465
v 3.294995 4.112754 -0.808465
v 3.294995 2.025181 -1.848913
v 3.294995 0.889204 -2.415085
v 3.294995 2.506134 2.415085
v 3.294995 0.418561 1.374637
v 3.455799 1.021288 -2.349255
v 3.455799 -0.585333 0.874296
v -3.475315 1.021288 -2.349255
v -0.685262 1.021288 -2.349255
v -0.685262 -0.585333 0.874296
v 0.701879 -0.585333 0.874296
v 0.701879 1.021288 -2.349255
v -3.475315 -0.585333 0.874296
v -0.887892 -0.585333 0.874296
v -0.887892 1.021288 -2.349255
v 0.868325 1.021288 -2.349255
v 0.868325 -0.585333 0.874296
v -2.071834 1.021288 -2.349255
v -2.071834 -0.585333 0.874296
v -3.286880 1.021288 -2.349255
v -3.286880 -0.585333 0.874296
v 2.081660 -0.585333 0.874296
v 2.081660 1.021288 -2.349255
v 3.294995 -0.585333 0.874296
v 3.294995 1.021288 -2.349255
v -2.006238 -0.717416 0.808465
v -2.006238 4.112754 -0.808465
v -2.006238 2.025181 -1.848913
v -2.006238 0.889204 -2.415085
v -2.006238 2.506134 2.415085
v -2.006238 0.418561 1.374637
v -2.006238 -0.585333 0.874296
v -2.006238 1.021288 -2.349255
v 2.179653 0.889204 -2.415085
v 2.179653 2.506134 2.415085
v 2.179653 0.418561 1.374637
v 2.179653 -0.717416 0.808465
v 2.179653 4.112754 -0.808465
v 2.179653 2.025181 -1.848913
v 2.179653 1.021288 -2.349255
v 2.179653 -0.585333 0.874296
v -0.887892 0.518038 1.175044
v 0.868325 0.518038 1.175044
v -2.071834 0.518038 1.175044
v -3.286880 0.518038 1.175044
v 2.081660 0.518038 1.175044
v 3.294995 0.518038 1.175044
v -0.887892 -0.485855 0.674703
v 0.868325 -0.485855 0.674703
v -2.071834 -0.485855 0.674703
v -3.286880 -0.485855 0.674703
v 2.081660 -0.485855 0.674703
v 3.294995 -0.485855 0.674703
v -2.006238 0.518038 1.175044
v -2.006238 -0.485855 0.674703
v 2.179653 0.518038 1.175044
v 2.179653 -0.485855 0.674703
v -3.414573 1.937732 2.900344
v -3.414573 2.003387 2.933066
v -3.414573 2.411061 2.361167
v -3.414573 2.476715 2.393889
v 3.403877 1.937732 2.900344
v 3.403877 2.003387 2.933066
v 3.403877 2.411061 2.361167
v 3.403877 2.476715 2.393889
v -3.475315 0.552006 -1.738526
v 3.455799 3.775557 -0.131906
v -3.475315 3.775557 -0.131906
v 3.455799 0.552006 -1.738526
v -0.685262 0.552006 -1.738526
v -0.685262 3.775557 -0.131906
v 0.701879 3.775557 -0.131906
v 0.701879 0.552006 -1.738526
v 3.455799 1.687983 -1.172354
v -3.475315 1.687983 -1.172354
v -0.887892 0.552006 -1.738526
v -0.887892 3.775557 -0.131906
v 0.868325 3.775557 -0.131906
v 0.868325 0.552006 -1.738526
v -2.071834 0.552006 -1.738526
v -2.071834 3.775557 -0.131906
v -3.286880 0.552006 -1.738526
v -3.286880 3.775557 -0.131906
v 2.081660 3.775557 -0.131906
v 2.081660 0.552006 -1.738526
v 3.294995 3.775557 -0.131906
v 3.294995 0.552006 -1.738526
v -3.475315 0.684090 -1.672695
v 3.455799 0.684090 -1.672695
v -2.006238 3.775557 -0.131906
v -2.006238 0.552006 -1.738526
v 2.179653 0.552006 -1.738526
v 2.179653 3.775557 -0.131906
v -3.475315 -0.377984 0.127422
v 3.455799 2.845567 1.734042
v -0.685262 -0.377984 0.127422
v -0.685262 2.845567 1.734042
v 0.701879 2.845567 1.734042
v 0.701879 -0.377984 0.127422
v 3.455799 0.757993 0.693594
v -0.887892 -0.377984 0.127422
v -0.887892 2.845567 1.734042
v 0.868325 2.845567 1.734042
v 0.868325 -0.377984 0.127422
v -2.071834 -0.377984 0.127422
v -2.071834 2.845567 1.734042
v -3.286880 -0.377984 0.127422
v -3.286880 2.845567 1.734042
v 2.081660 2.845567 1.734042
v 2.081660 -0.377984 0.127422
v 3.294995 2.845567 1.734042
v 3.294995 -0.377984 0.127422
v 3.455799 -0.245900 0.193253
v -2.006238 2.845567 1.734042
v -2.006238 -0.377984 0.127422
v 2.179653 -0.377984 0.127422
v 2.179653 2.845567 1.734042
v -3.475315 2.845567 1.734042
v 3.455799 -0.377984 0.127422
v -3.475315 0.757993 0.693594
v -3.475315 -0.245900 0.193253
v -3.304202 1.687983 -1.172354
v -3.304202 0.684090 -1.672695
v -3.304202 0.757993 0.693594
v -3.304202 -0.245900 0.193253
v -0.887892 1.946294 -1.690633
v -2.071834 1.946294 -1.690633
v -3.286880 1.946294 -1.690633
v -0.887892 0.942400 -2.190974
v -2.071834 0.942400 -2.190974
v -3.286880 0.942400 -2.190974
v -2.006238 1.946294 -1.690633
v -2.006238 0.942400 -2.190974
vt 0.868203 0.697182
vt 0.875000 0.697182
vt 0.875000 0.750000
vt 0.868203 0.750000
vt 0.463100 0.993203
vt 0.625000 0.993203
vt 0.625000 1.000000
vt 0.463100 1.000000
vt 0.463100 0.197530
vt 0.625000 0.197530
vt 0.625000 0.250000
vt 0.463100 0.250000
vt 0.369200 0.697182
vt 0.375000 0.697182
vt 0.375000 0.750000
vt 0.369200 0.750000
vt 0.463100 0.697182
vt 0.625000 0.697182
vt 0.625000 0.750000
vt 0.463100 0.750000
vt 0.463100 0.494200
vt 0.625000 0.494200
vt 0.625000 0.500000
vt 0.463100 0.500000
vt 0.463100 0.343326
vt 0.625000 0.343326
vt 0.625000 0.350635
vt 0.463100 0.350635
vt 0.218326 0.697182
vt 0.225635 0.697182
vt 0.225635 0.750000
vt 0.218326 0.750000
vt 0.463100 0.849332
vt 0.625000 0.849332
vt 0.625000 0.899365
vt 0.463100 0.899365
vt 0.724332 0.697182
vt 0.774365 0.697182
vt 0.774365 0.750000
vt 0.724332 0.750000
vt 0.718328 0.697182
vt 0.718328 0.750000
vt 0.463100 0.843328
vt 0.625000 0.843328
vt 0.625000 0.400668
vt 0.463100 0.400668
vt 0.275668 0.697182
vt 0.275668 0.750000
vt 0.385244 0.350635
vt 0.385244 0.400668
vt 0.385244 0.843328
vt 0.385244 0.849332
vt 0.385244 0.899365
vt 0.463100 0.906674
vt 0.385244 0.906674
vt 0.385244 0.343326
vt 0.385244 0.494200
vt 0.385244 0.500000
vt 0.385244 0.697182
vt 0.385244 0.750000
vt 0.385244 0.197530
vt 0.385244 0.250000
vt 0.385244 0.993203
vt 0.385244 1.000000
vt 0.375000 0.849332
vt 0.463100 0.849332
vt 0.463100 0.899365
vt 0.375000 0.899365
vt 0.177988 0.697182
vt 0.177988 0.750000
vt 0.463100 0.302988
vt 0.625000 0.302988
vt 0.625000 0.906674
vt 0.781674 0.697182
vt 0.781674 0.750000
vt 0.463100 0.406672
vt 0.385244 0.406672
vt 0.463100 0.799564
vt 0.625000 0.799564
vt 0.674564 0.697182
vt 0.674564 0.750000
vt 0.625000 0.406672
vt 0.281672 0.697182
vt 0.281672 0.750000
vt 0.463100 0.256797
vt 0.625000 0.256797
vt 0.625000 0.300622
vt 0.463100 0.300622
vt 0.131797 0.697182
vt 0.175622 0.697182
vt 0.175622 0.750000
vt 0.131797 0.750000
vt 0.385244 0.947012
vt 0.463100 0.947012
vt 0.463100 0.949378
vt 0.385244 0.949378
vt 0.625000 0.947012
vt 0.625000 0.949378
vt 0.822012 0.697182
vt 0.824378 0.697182
vt 0.824378 0.750000
vt 0.822012 0.750000
vt 0.385244 0.256797
vt 0.125000 0.697182
vt 0.125000 0.750000
vt 0.671030 0.697182
vt 0.671030 0.750000
vt 0.463100 0.796030
vt 0.625000 0.796030
vt 0.385244 0.796030
vt 0.385244 0.799564
vt 0.463100 0.450436
vt 0.385244 0.450436
vt 0.625000 0.450436
vt 0.325436 0.697182
vt 0.325436 0.750000
vt 0.463100 0.755800
vt 0.385244 0.755800
vt 0.625000 0.755800
vt 0.630800 0.697182
vt 0.630800 0.750000
vt 0.385244 0.453970
vt 0.463100 0.453970
vt 0.625000 0.453970
vt 0.328970 0.697182
vt 0.328970 0.750000
vt 0.375000 0.453970
vt 0.375000 0.494200
vt 0.375000 0.755800
vt 0.375000 0.406672
vt 0.375000 0.450436
vt 0.375000 0.796030
vt 0.375000 0.799564
vt 0.375000 0.949378
vt 0.375000 0.993203
vt 0.375000 0.250000
vt 0.375000 0.256797
vt 0.375000 0.947012
vt 0.385244 0.300622
vt 0.375000 0.300622
vt 0.375000 0.843328
vt 0.375000 0.400668
vt 0.375000 0.302988
vt 0.385244 0.302988
vt 0.375000 0.343326
vt 0.375000 1.000000
vt 0.375000 0.197530
vt 0.375000 0.500000
vt 0.375000 0.350635
vt 0.375000 0.899365
vt 0.375000 0.906674
vt 0.375000 0.849332
vt 0.385244 0.799564
vt 0.463100 0.799564
vt 0.463100 0.843328
vt 0.385244 0.843328
vt 0.385244 0.949378
vt 0.463100 0.949378
vt 0.463100 0.993203
vt 0.385244 0.993203
vt 0.385244 0.906674
vt 0.463100 0.906674
vt 0.463100 0.947012
vt 0.385244 0.947012
vt 0.385244 0.755800
vt 0.463100 0.755800
vt 0.463100 0.796030
vt 0.385244 0.796030
vt 0.375000 0.000000
vt 0.625000 0.000000
vt 0.625000 0.250000
vt 0.375000 0.250000
vt 0.625000 0.500000
vt 0.375000 0.500000
vt 0.625000 0.750000
vt 0.375000 0.750000
vt 0.625000 1.000000
vt 0.375000 1.000000
vt 0.125000 0.500000
vt 0.125000 0.750000
vt 0.875000 0.500000
vt 0.875000 0.750000
vt 0.630800 0.500000
vt 0.671030 0.500000
vt 0.671030 0.552470
vt 0.630800 0.552470
vt 0.325436 0.500000
vt 0.328970 0.500000
vt 0.328970 0.552470
vt 0.325436 0.552470
vt 0.175622 0.500000
vt 0.177988 0.500000
vt 0.177988 0.552470
vt 0.175622 0.552470
vt 0.781674 0.500000
vt 0.822012 0.500000
vt 0.822012 0.552470
vt 0.781674 0.552470
vt 0.385244 0.552470
vt 0.375000 0.552470
vt 0.375000 0.052818
vt 0.385244 0.052818
vt 0.369200 0.500000
vt 0.369200 0.552470
vt 0.625000 0.552470
vt 0.281672 0.500000
vt 0.281672 0.552470
vt 0.674564 0.500000
vt 0.674564 0.552470
vt 0.824378 0.500000
vt 0.868203 0.500000
vt 0.868203 0.552470
vt 0.824378 0.552470
vt 0.125000 0.500000
vt 0.131797 0.500000
vt 0.131797 0.552470
vt 0.125000 0.552470
vt 0.275668 0.500000
vt 0.275668 0.552470
vt 0.718328 0.500000
vt 0.718328 0.552470
vt 0.774365 0.500000
vt 0.774365 0.552470
vt 0.218326 0.500000
vt 0.218326 0.552470
vt 0.463100 0.552470
vt 0.225635 0.500000
vt 0.225635 0.552470
vt 0.724332 0.500000
vt 0.724332 0.552470
vt 0.463100 0.052818
vt 0.625000 0.052818
vt 0.875000 0.500000
vt 0.875000 0.552470
vt 0.463100 0.000000
vt 0.625000 0.000000
vt 0.385244 0.000000
vt 0.375000 0.000000
vt 0.385244 0.052818
vt 0.463100 0.052818
vt 0.463100 0.197530
vt 0.385244 0.197530
vt 0.385244 0.302988
vt 0.463100 0.302988
vt 0.463100 0.343326
vt 0.385244 0.343326
vt 0.385244 0.256797
vt 0.463100 0.256797
vt 0.463100 0.300622
vt 0.385244 0.300622
vn 0.0000 0.8950 0.4461
vn 0.0000 -0.4461 0.8950
vn -1.0000 0.0000 0.0000
vn 0.0000 -0.8950 -0.4461
vn 1.0000 0.0000 0.0000
vn 0.0000 0.4461 -0.8950
vn 0.0000 -0.7515 -0.6597
vn 0.0000 0.7515 0.6597
usemtl Material
s off
f 167/1/1 177/2/1 7/3/1 48/4/1
f 49/5/2 48/6/2 7/7/2 18/8/2
f 134/9/3 127/10/3 5/11/3 20/12/3
f 171/13/4 178/14/4 4/15/4 59/16/4
f 159/17/5 154/18/5 3/19/5 19/20/5
f 61/21/6 60/22/6 1/23/6 17/24/6
f 33/25/6 32/26/6 12/27/6 21/28/6
f 160/29/4 155/30/4 11/31/4 31/32/4
f 23/33/2 16/34/2 10/35/2 22/36/2
f 157/37/1 156/38/1 10/39/1 16/40/1
f 162/41/1 157/37/1 16/40/1 38/42/1
f 39/43/2 38/44/2 16/34/2 23/33/2
f 21/28/6 12/27/6 14/45/6 24/46/6
f 155/30/4 158/47/4 13/48/4 11/31/4
f 68/49/6 21/28/6 24/46/6 71/50/6
f 76/51/2 39/43/2 23/33/2 70/52/2
f 69/53/2 22/36/2 34/54/2 73/55/2
f 74/56/6 33/25/6 21/28/6 68/49/6
f 84/57/6 61/21/6 17/24/6 65/58/6
f 172/59/5 159/17/5 19/20/5 66/60/5
f 147/61/3 134/9/3 20/12/3 67/62/3
f 80/63/2 49/5/2 18/8/2 72/64/2
f 26/65/2 28/66/2 27/67/2 25/68/2
f 174/69/4 160/29/4 31/32/4 85/70/4
f 87/71/6 86/72/6 32/26/6 33/25/6
f 22/36/2 10/35/2 30/73/2 34/54/2
f 156/38/1 161/74/1 30/75/1 10/39/1
f 71/50/6 24/46/6 40/76/6 75/77/6
f 58/78/2 57/79/2 38/44/2 39/43/2
f 168/80/1 162/41/1 38/42/1 57/81/1
f 24/46/6 14/45/6 36/82/6 40/76/6
f 158/47/4 163/83/4 35/84/4 13/48/4
f 52/85/6 51/86/6 45/87/6 46/88/6
f 166/89/4 164/90/4 44/91/4 50/92/4
f 91/93/2 90/94/2 43/95/2 78/96/2
f 90/94/2 89/97/2 42/98/2 43/95/2
f 173/99/1 165/100/1 42/101/1 89/102/1
f 67/62/6 20/12/6 52/85/6 79/103/6
f 153/104/4 166/89/4 50/92/4 8/105/4
f 20/12/6 5/11/6 51/86/6 52/85/6
f 43/95/2 42/98/2 48/6/2 49/5/2
f 165/100/1 167/1/1 48/4/1 42/101/1
f 176/106/1 168/80/1 57/81/1 94/107/1
f 95/108/2 94/109/2 57/79/2 58/78/2
f 100/110/2 95/108/2 58/78/2 81/111/2
f 75/77/6 40/76/6 55/112/6 82/113/6
f 40/76/6 36/82/6 54/114/6 55/112/6
f 163/83/4 169/115/4 53/116/4 35/84/4
f 66/60/2 19/20/2 64/117/2 83/118/2
f 19/20/2 3/19/2 63/119/2 64/117/2
f 154/18/1 170/120/1 63/121/1 3/19/1
f 99/122/6 98/123/6 61/21/6 84/57/6
f 98/123/6 97/124/6 60/22/6 61/21/6
f 175/125/4 171/13/4 59/16/4 96/126/4
f 93/127/6 99/122/6 84/57/6 62/128/6
f 4/15/2 66/60/2 83/118/2 59/129/2
f 37/130/6 75/77/6 82/113/6 56/131/6
f 96/132/2 100/110/2 81/111/2 53/133/2
f 44/134/2 78/96/2 80/63/2 50/135/2
f 6/136/6 67/62/6 79/103/6 47/137/6
f 85/138/2 91/93/2 78/96/2 44/134/2
f 47/137/6 79/103/6 77/139/6 41/140/6
f 53/133/2 81/111/2 76/51/2 35/141/2
f 15/142/6 71/50/6 75/77/6 37/130/6
f 88/143/6 92/144/6 74/56/6 29/145/6
f 50/135/2 80/63/2 72/64/2 8/146/2
f 125/147/3 147/61/3 67/62/3 6/136/3
f 178/14/5 172/59/5 66/60/5 4/15/5
f 62/128/6 84/57/6 65/58/6 2/148/6
f 29/145/6 74/56/6 68/49/6 9/149/6
f 11/150/2 69/53/2 73/55/2 31/151/2
f 35/141/2 76/51/2 70/52/2 13/152/2
f 9/149/6 68/49/6 71/50/6 15/142/6
f 41/140/6 77/139/6 92/144/6 88/143/6
f 31/151/2 73/55/2 91/93/2 85/138/2
f 161/74/1 173/99/1 89/102/1 30/75/1
f 34/54/2 30/73/2 89/97/2 90/94/2
f 46/88/6 45/87/6 86/72/6 87/71/6
f 164/90/4 174/69/4 85/70/4 44/91/4
f 77/139/6 46/88/6 87/71/6 92/144/6
f 59/129/2 83/118/2 100/110/2 96/132/2
f 56/131/6 82/113/6 99/122/6 93/127/6
f 169/115/4 175/125/4 96/126/4 53/116/4
f 55/112/6 54/114/6 97/124/6 98/123/6
f 82/113/6 55/112/6 98/123/6 99/122/6
f 64/117/2 63/119/2 94/109/2 95/108/2
f 170/120/1 176/106/1 94/107/1 63/121/1
f 111/153/2 105/154/2 102/155/2 108/156/2
f 109/157/2 103/158/2 104/159/2 110/160/2
f 107/161/2 101/162/2 113/163/2 114/164/2
f 112/165/2 106/166/2 115/167/2 116/168/2
f 117/169/3 118/170/3 120/171/3 119/172/3
f 119/172/6 120/171/6 124/173/6 123/174/6
f 123/174/5 124/173/5 122/175/5 121/176/5
f 121/176/2 122/175/2 118/177/2 117/178/2
f 119/179/7 123/174/7 121/176/7 117/180/7
f 124/173/8 120/181/8 118/182/8 122/175/8
f 60/183/1 97/184/1 152/185/1 145/186/1
f 56/187/4 93/188/4 151/189/4 144/190/4
f 41/191/4 88/192/4 150/193/4 139/194/4
f 32/195/1 86/196/1 149/197/1 136/198/1
f 2/148/5 65/58/5 148/199/5 128/200/5
f 153/201/3 180/202/3 147/61/3 125/147/3
f 93/188/4 62/203/4 146/204/4 151/189/4
f 1/23/1 60/183/1 145/186/1 126/205/1
f 37/206/4 56/187/4 144/190/4 138/207/4
f 97/184/1 54/208/1 143/209/1 152/185/1
f 45/210/1 51/211/1 142/212/1 140/213/1
f 6/214/4 47/215/4 141/216/4 125/217/4
f 86/196/1 45/210/1 140/213/1 149/197/1
f 47/215/4 41/191/4 139/194/4 141/216/4
f 15/218/4 37/206/4 138/207/4 132/219/4
f 54/208/1 36/220/1 137/221/1 143/209/1
f 12/222/1 32/195/1 136/198/1 130/223/1
f 88/192/4 29/224/4 135/225/4 150/193/4
f 65/58/5 17/24/5 133/226/5 148/199/5
f 9/227/4 15/218/4 132/219/4 129/228/4
f 36/220/1 14/229/1 131/230/1 137/221/1
f 14/229/1 12/222/1 130/223/1 131/230/1
f 29/224/4 9/227/4 129/228/4 135/225/4
f 17/24/5 1/23/5 126/205/5 133/226/5
f 62/203/4 2/148/4 128/200/4 146/204/4
f 179/231/3 177/232/3 127/10/3 134/9/3
f 51/211/1 5/233/1 127/234/1 142/212/1
f 18/235/3 7/236/3 177/232/3 179/231/3
f 72/237/3 18/235/3 179/231/3 180/202/3
f 8/238/3 72/237/3 180/202/3 153/201/3
f 145/186/1 152/185/1 176/106/1 170/120/1
f 144/190/4 151/189/4 175/125/4 169/115/4
f 139/194/4 150/193/4 174/69/4 164/90/4
f 136/198/1 149/197/1 173/99/1 161/74/1
f 128/200/5 148/199/5 172/59/5 178/14/5
f 151/189/4 146/204/4 171/13/4 175/125/4
f 126/205/1 145/186/1 170/120/1 154/18/1
f 138/207/4 144/190/4 169/115/4 163/83/4
f 152/185/1 143/209/1 168/80/1 176/106/1
f 140/213/1 142/212/1 167/1/1 165/100/1
f 125/217/4 141/216/4 166/89/4 153/104/4
f 149/197/1 140/213/1 165/100/1 173/99/1
f 141/216/4 139/194/4 164/90/4 166/89/4
f 132/219/4 138/207/4 163/83/4 158/47/4
f 143/209/1 137/221/1 162/41/1 168/80/1
f 130/223/1 136/198/1 161/74/1 156/38/1
f 150/193/4 135/225/4 160/29/4 174/69/4
f 148/199/5 133/226/5 159/17/5 172/59/5
f 129/228/4 132/219/4 158/47/4 155/30/4
f 137/221/1 131/230/1 157/37/1 162/41/1
f 131/230/1 130/223/1 156/38/1 157/37/1
f 135/225/4 129/228/4 155/30/4 160/29/4
f 133/226/5 126/205/5 154/18/5 159/17/5
f 146/204/4 128/200/4 178/14/4 171/13/4
f 142/212/1 127/234/1 177/2/1 167/1/1
f 184/239/3 183/240/3 181/241/3 182/242/3
f 192/243/6 191/244/6 185/245/6 188/246/6
f 190/247/6 187/248/6 186/249/6 189/250/6
