# Blender v3.2.1 OBJ File: 'edificio_h.blend'
# www.blender.org
mtllib edificio_h_mtl.mtl
o Cube
v 4.186108 1.306478 2.314453
v 4.186108 0.582708 1.369271
v 4.186108 1.100748 2.471989
v 4.186108 0.376978 1.526807
v -4.305562 1.306478 2.314453
v -4.305562 0.582708 1.369271
v -4.305562 1.100748 2.471989
v -4.305562 0.376978 1.526807
v -3.556484 0.476526 1.570190
v -3.556484 1.110524 2.447266
v -3.556484 1.787873 0.566031
v -3.556484 2.486144 1.527041
v 3.404055 0.420168 1.493866
v 3.404055 1.118439 2.454876
v 3.404055 1.731515 0.489706
v 3.404055 2.429786 1.450716
v -0.576028 3.469994 -0.841528
v -0.576028 4.168264 0.119482
v -0.576028 0.595584 1.359542
v -0.576028 1.293855 2.320552
v 0.488708 4.168264 0.119482
v 0.488708 0.595584 1.359542
v 0.488708 3.469994 -0.841528
v 0.488708 1.293855 2.320552
v 1.021075 4.034390 0.221996
v 1.021075 0.595584 1.359542
v 1.021075 3.336120 -0.739015
v 1.021075 1.293855 2.320552
v 1.540767 3.828627 0.379558
v 1.540767 0.595584 1.359542
v 1.540768 3.130356 -0.581452
v 1.540768 1.293855 2.320552
v 2.076782 3.634366 0.528314
v 2.076782 0.595584 1.359542
v 2.076782 2.936094 -0.432697
v 2.076782 1.293855 2.320552
v 2.625558 3.417489 0.694386
v 2.625558 0.595584 1.359542
v 2.625558 2.719218 -0.266624
v 2.625558 1.293855 2.320552
v 3.144556 3.197431 0.862895
v 3.144556 0.595584 1.359542
v 3.144556 2.499160 -0.098116
v 3.144556 1.293855 2.320552
v -1.108396 3.336120 -0.739015
v -1.108396 1.293855 2.320552
v -1.108396 4.034390 0.221996
v -1.108396 0.595584 1.359542
v -1.640763 3.130356 -0.581452
v -1.640763 1.293855 2.320552
v -1.640764 3.828627 0.379558
v -1.640764 0.595584 1.359542
v -2.173131 2.936094 -0.432697
v -2.173131 1.293855 2.320552
v -2.173131 3.634366 0.528314
v -2.173131 0.595584 1.359542
v -2.718174 2.719218 -0.266624
v -2.718174 1.293855 2.320552
v -2.718174 3.417489 0.694386
v -2.718174 0.595584 1.359542
v -3.246528 2.499160 -0.098116
v -3.246528 1.293855 2.320552
v -3.246528 3.197431 0.862895
v -3.246528 0.595584 1.359542
v -3.556484 0.995867 1.172506
v -3.556484 1.655320 2.082823
v 3.404055 0.939509 1.096182
v 3.404055 1.637780 2.057192
v -0.576028 2.432226 1.448848
v -0.576028 1.733956 0.487837
v 0.488708 2.432226 1.448848
v 0.488708 1.733956 0.487837
v 1.073601 1.868622 1.577683
v 1.021075 1.680936 0.528436
v 1.540768 2.297718 1.551847
v 1.540768 1.599447 0.590837
v 2.076782 2.220783 1.610760
v 2.076782 1.522512 0.649749
v 2.625558 2.134892 1.676531
v 2.625558 1.436621 0.715520
v 3.144556 2.047741 1.743266
v 3.144556 1.349470 0.782256
v -1.108396 1.680936 0.528436
v -1.108396 2.379207 1.489447
v -1.640763 1.599447 0.590837
v -1.634650 1.810976 1.636252
v -2.173131 1.522512 0.649749
v -2.173131 2.220783 1.610760
v -2.718174 1.436621 0.715520
v -2.718174 2.134892 1.676531
v -3.246528 1.349470 0.782256
v -3.246528 2.047741 1.743266
vt 0.625000 0.500000
vt 0.875000 0.500000
vt 0.875000 0.750000
vt 0.625000 0.750000
vt 0.375000 0.750000
vt 0.625000 1.000000
vt 0.375000 1.000000
vt 0.375000 0.000000
vt 0.625000 0.000000
vt 0.625000 0.250000
vt 0.375000 0.250000
vt 0.125000 0.500000
vt 0.375000 0.500000
vt 0.125000 0.750000
vt 0.375000 0.099009
vt 0.625000 0.099009
vt 0.625000 0.250000
vt 0.375000 0.250000
vt 0.375000 0.490592
vt 0.625000 0.490592
vt 0.625000 0.500000
vt 0.375000 0.500000
vt 0.375000 0.650991
vt 0.625000 0.650991
vt 0.625000 0.750000
vt 0.375000 0.750000
vt 0.375000 0.991123
vt 0.625000 0.991123
vt 0.625000 1.000000
vt 0.375000 1.000000
vt 0.365592 0.650991
vt 0.365592 0.750000
vt 0.866123 0.650991
vt 0.875000 0.650991
vt 0.875000 0.750000
vt 0.866123 0.750000
vt 0.211397 0.650991
vt 0.230699 0.650991
vt 0.230699 0.750000
vt 0.211397 0.750000
vt 0.375000 0.855699
vt 0.625000 0.855698
vt 0.625000 0.894301
vt 0.375000 0.894301
vt 0.375000 0.336397
vt 0.625000 0.336397
vt 0.625000 0.355699
vt 0.375000 0.355699
vt 0.375000 0.836397
vt 0.625000 0.836397
vt 0.269301 0.650991
vt 0.269301 0.750000
vt 0.625000 0.394301
vt 0.375000 0.394301
vt 0.692555 0.650991
vt 0.711397 0.650991
vt 0.711397 0.750000
vt 0.692555 0.750000
vt 0.375000 0.817555
vt 0.625000 0.817555
vt 0.288603 0.650991
vt 0.288603 0.750000
vt 0.625000 0.413603
vt 0.375000 0.413603
vt 0.375000 0.798121
vt 0.625000 0.798121
vt 0.673121 0.650991
vt 0.673122 0.750000
vt 0.307445 0.650991
vt 0.307445 0.750000
vt 0.625000 0.432445
vt 0.375000 0.432445
vt 0.653225 0.650991
vt 0.653225 0.750000
vt 0.375000 0.778225
vt 0.625000 0.778225
vt 0.326879 0.650991
vt 0.326879 0.750000
vt 0.625000 0.451879
vt 0.375000 0.451879
vt 0.375000 0.759408
vt 0.625000 0.759408
vt 0.634408 0.650991
vt 0.634408 0.750000
vt 0.346775 0.650991
vt 0.346775 0.750000
vt 0.625000 0.471775
vt 0.375000 0.471775
vt 0.375000 0.317096
vt 0.625000 0.317096
vt 0.192096 0.650991
vt 0.192096 0.750000
vt 0.625000 0.913603
vt 0.375000 0.913603
vt 0.172794 0.650991
vt 0.172794 0.750000
vt 0.375000 0.297794
vt 0.625000 0.297794
vt 0.625000 0.932904
vt 0.375000 0.932904
vt 0.375000 0.278033
vt 0.625000 0.278033
vt 0.153033 0.650991
vt 0.153033 0.750000
vt 0.807904 0.650991
vt 0.827206 0.650991
vt 0.827206 0.750000
vt 0.807904 0.750000
vt 0.625000 0.952206
vt 0.375000 0.952206
vt 0.133877 0.650991
vt 0.133877 0.750000
vt 0.375000 0.258877
vt 0.625000 0.258877
vt 0.846967 0.650991
vt 0.846967 0.750000
vt 0.625000 0.971967
vt 0.375000 0.971967
vt 0.125000 0.650991
vt 0.125000 0.750000
vt 0.846967 0.500000
vt 0.866123 0.500000
vt 0.125000 0.500000
vt 0.133877 0.500000
vt 0.827206 0.500000
vt 0.153033 0.500000
vt 0.807904 0.500000
vt 0.172794 0.500000
vt 0.788603 0.500000
vt 0.788603 0.650991
vt 0.192096 0.500000
vt 0.769301 0.500000
vt 0.769301 0.650991
vt 0.211397 0.500000
vt 0.346775 0.500000
vt 0.365592 0.500000
vt 0.634408 0.500000
vt 0.326879 0.500000
vt 0.653225 0.500000
vt 0.307445 0.500000
vt 0.673121 0.500000
vt 0.288603 0.500000
vt 0.692555 0.500000
vt 0.269301 0.500000
vt 0.711397 0.500000
vt 0.230699 0.500000
vt 0.730698 0.500000
vt 0.730699 0.650991
vt 0.875000 0.500000
vt 0.375000 0.000000
vt 0.625000 0.000000
vn 0.0000 0.6080 0.7940
vn 0.0000 -0.7940 0.6080
vn -1.0000 0.0000 0.0000
vn 0.0000 -0.6080 -0.7940
vn 1.0000 0.0000 0.0000
vn 0.0000 0.7940 -0.6080
vn 0.9658 0.2098 -0.1524
vn 0.5813 -0.6588 0.4775
vn 0.0636 0.5859 0.8079
vn 0.0000 -0.8090 0.5878
vn -0.3019 0.7713 -0.5604
vn 0.0000 0.8090 -0.5878
vn -0.2733 0.6700 0.6902
vn 0.3019 0.7713 -0.5604
vn 0.4462 0.7240 -0.5261
vn 0.4151 0.7360 -0.5348
vn 0.4455 0.7243 -0.5263
vn -0.6481 -0.6161 0.4476
vn 0.4710 0.7137 -0.5185
vn -0.4376 0.7274 -0.5285
vn -0.4175 0.7351 -0.5341
vn -0.4479 0.7233 -0.5255
vn 0.2411 0.6735 0.6987
vn -0.4644 0.7165 -0.5206
vn -0.9522 0.2472 -0.1796
vn -0.2927 -0.5814 -0.7592
vn 0.2041 0.5517 0.8087
vn -0.1743 0.5575 0.8117
vn -0.2312 0.5470 0.8046
vn 0.1815 0.5591 0.8090
vn 0.2567 0.5674 0.7824
usemtl Material
s off
f 1/1/1 5/2/1 7/3/1 3/4/1
f 4/5/2 3/4/2 7/6/2 8/7/2
f 8/8/3 7/9/3 5/10/3 6/11/3
f 6/12/4 2/13/4 4/5/4 8/14/4
f 2/13/5 1/1/5 3/4/5 4/5/5
f 6/11/6 5/10/6 1/1/6 2/13/6
f 65/15/3 66/16/3 12/17/3 11/18/3
f 43/19/7 41/20/7 16/21/7 15/22/7
f 67/23/5 68/24/5 14/25/5 13/26/5
f 64/27/8 62/28/8 10/29/8 9/30/8
f 82/31/4 67/23/4 13/26/4 42/32/4
f 92/33/9 66/34/9 10/35/9 62/36/9
f 83/37/4 70/38/4 19/39/4 48/40/4
f 22/41/10 24/42/10 20/43/10 19/44/10
f 45/45/11 47/46/11 18/47/11 17/48/11
f 26/49/10 28/50/10 24/42/10 22/41/10
f 70/38/4 72/51/4 22/52/4 19/39/4
f 17/48/12 18/47/12 21/53/12 23/54/12
f 75/55/13 73/56/13 28/57/13 32/58/13
f 30/59/10 32/60/10 28/50/10 26/49/10
f 72/51/4 74/61/4 26/62/4 22/52/4
f 23/54/14 21/53/14 25/63/14 27/64/14
f 34/65/10 36/66/10 32/60/10 30/59/10
f 77/67/1 75/55/1 32/58/1 36/68/1
f 74/61/4 76/69/4 30/70/4 26/62/4
f 27/64/15 25/63/15 29/71/15 31/72/15
f 79/73/1 77/67/1 36/68/1 40/74/1
f 38/75/10 40/76/10 36/66/10 34/65/10
f 76/69/4 78/77/4 34/78/4 30/70/4
f 31/72/16 29/71/16 33/79/16 35/80/16
f 42/81/10 44/82/10 40/76/10 38/75/10
f 81/83/1 79/73/1 40/74/1 44/84/1
f 78/77/4 80/85/4 38/86/4 34/78/4
f 35/80/17 33/79/17 37/87/17 39/88/17
f 68/24/1 81/83/1 44/84/1 14/25/1
f 13/26/18 14/25/18 44/82/18 42/81/18
f 80/85/4 82/31/4 42/32/4 38/86/4
f 39/88/19 37/87/19 41/20/19 43/19/19
f 49/89/20 51/90/20 47/46/20 45/45/20
f 85/91/4 83/37/4 48/40/4 52/92/4
f 19/44/10 20/43/10 46/93/10 48/94/10
f 87/95/4 85/91/4 52/92/4 56/96/4
f 53/97/21 55/98/21 51/90/21 49/89/21
f 48/94/10 46/93/10 50/99/10 52/100/10
f 57/101/22 59/102/22 55/98/22 53/97/22
f 89/103/4 87/95/4 56/96/4 60/104/4
f 86/105/23 88/106/23 54/107/23 50/108/23
f 52/100/10 50/99/10 54/109/10 56/110/10
f 91/111/4 89/103/4 60/104/4 64/112/4
f 61/113/24 63/114/24 59/102/24 57/101/24
f 88/106/1 90/115/1 58/116/1 54/107/1
f 56/110/10 54/109/10 58/117/10 60/118/10
f 11/18/25 12/17/25 63/114/25 61/113/25
f 65/119/26 91/111/26 64/112/26 9/120/26
f 90/115/1 92/33/1 62/36/1 58/116/1
f 60/118/10 58/117/10 62/28/10 64/27/10
f 59/121/1 63/122/1 92/33/1 90/115/1
f 11/123/26 61/124/26 91/111/26 65/119/26
f 55/125/1 59/121/1 90/115/1 88/106/1
f 61/124/4 57/126/4 89/103/4 91/111/4
f 51/127/27 55/125/27 88/106/27 86/105/27
f 57/126/4 53/128/4 87/95/4 89/103/4
f 47/129/28 51/127/28 86/105/28 84/130/28
f 53/128/4 49/131/4 85/91/4 87/95/4
f 18/132/1 47/129/1 84/130/1 69/133/1
f 49/131/4 45/134/4 83/37/4 85/91/4
f 39/135/4 43/136/4 82/31/4 80/85/4
f 16/21/1 41/137/1 81/83/1 68/24/1
f 35/138/4 39/135/4 80/85/4 78/77/4
f 41/137/1 37/139/1 79/73/1 81/83/1
f 31/140/4 35/138/4 78/77/4 76/69/4
f 37/139/1 33/141/1 77/67/1 79/73/1
f 27/142/4 31/140/4 76/69/4 74/61/4
f 33/141/1 29/143/1 75/55/1 77/67/1
f 23/144/4 27/142/4 74/61/4 72/51/4
f 29/143/29 25/145/29 73/56/29 75/55/29
f 17/146/4 23/144/4 72/51/4 70/38/4
f 25/145/30 21/147/30 71/148/30 73/56/30
f 45/134/4 17/146/4 70/38/4 83/37/4
f 21/147/1 18/132/1 69/133/1 71/148/1
f 63/122/31 12/149/31 66/34/31 92/33/31
f 43/136/4 15/22/4 67/23/4 82/31/4
f 15/22/5 16/21/5 68/24/5 67/23/5
f 9/150/3 10/151/3 66/16/3 65/15/3
o Cubo.001
v -1.912861 0.024896 1.838049
v -1.912861 0.523977 2.489805
v -1.912861 0.396260 1.553678
v -1.912861 0.895341 2.205434
v 1.805677 0.028005 1.835668
v 1.805677 0.527086 2.487424
v 1.805677 0.396260 1.553678
v 1.805677 0.895341 2.205434
v -1.638196 0.396260 1.553678
v -1.638196 0.895341 2.205434
v -1.638196 -0.400219 2.163579
v -1.638196 0.098861 2.815336
v -1.374096 0.895341 2.205434
v -1.374096 -0.619455 2.331458
v -1.374096 0.396260 1.553678
v -1.374096 -0.120374 2.983215
v -1.109115 0.895341 2.205434
v -1.109115 -0.619455 2.331458
v -1.109115 0.396260 1.553678
v -1.109115 -0.120374 2.983215
v -0.843167 0.895341 2.205434
v -0.843167 -0.619455 2.331458
v -0.843166 0.396260 1.553678
v -0.843166 -0.120374 2.983215
v -0.588878 0.895341 2.205434
v -0.588878 -0.619455 2.331458
v -0.588877 0.396260 1.553678
v -0.588877 -0.120374 2.983215
v -0.323993 0.895341 2.205434
v -0.323993 -0.619455 2.331458
v -0.323993 0.396260 1.553678
v -0.057784 0.895341 2.205434
v -0.057784 -0.619455 2.331458
v -0.057784 0.396260 1.553678
v 1.551569 0.895341 2.205434
v 1.551569 -0.400219 2.163579
v 1.551569 0.396260 1.553678
v 1.551569 0.098861 2.815336
v 1.286873 0.396260 1.553678
v 1.286873 -0.120374 2.983215
v 1.286873 0.895341 2.205434
v 1.286873 -0.619455 2.331458
v 1.030747 0.396260 1.553678
v 1.030747 -0.120374 2.983215
v 1.030747 0.895341 2.205434
v 1.030747 -0.619455 2.331458
v 0.763950 0.396260 1.553678
v 0.763950 -0.120374 2.983215
v 0.763950 0.895341 2.205434
v 0.763950 -0.619455 2.331458
v 0.493643 0.396260 1.553678
v 0.493643 -0.120374 2.983215
v 0.493643 0.895341 2.205434
v 0.493643 -0.619455 2.331458
v 0.217929 0.396260 1.553678
v 0.217929 -0.120374 2.983215
v 0.217929 0.895341 2.205434
v 0.217929 -0.619455 2.331458
v -1.912861 0.311629 2.212497
v -1.912861 0.682993 1.928126
v 1.805677 0.682993 1.928126
v 1.805677 0.314738 2.210116
v -1.638196 -0.113487 2.538028
v -1.638196 0.682993 1.928126
v -1.374096 -0.332722 2.705907
v -1.374096 0.682993 1.928126
v -1.109115 -0.332722 2.705907
v -1.109115 0.682993 1.928126
v -0.843166 -0.332722 2.705907
v -0.843166 0.682993 1.928126
v -0.588877 -0.332722 2.705907
v -0.588877 0.682993 1.928126
v -0.323993 -0.332722 2.705907
v -0.323993 0.682993 1.928126
v -0.057784 -0.332722 2.705907
v -0.057784 0.682993 1.928126
v 1.551569 -0.113487 2.538028
v 1.551569 0.682993 1.928126
v 1.286873 0.682993 1.928126
v 1.286873 -0.332722 2.705907
v 1.030747 0.682993 1.928126
v 1.030747 -0.332722 2.705907
v 0.763950 0.682993 1.928126
v 0.763950 -0.332722 2.705907
v 0.493643 0.682993 1.928126
v 0.493643 -0.332722 2.705907
v 0.217929 0.682993 1.928126
v 0.217929 -0.332722 2.705907
v -1.912861 0.456411 2.401571
v -1.912861 0.827775 2.117200
v 1.805677 0.827775 2.117200
v 1.805677 0.459521 2.399190
v -1.638196 0.031296 2.727102
v -1.638196 0.827775 2.117200
v -1.374096 -0.187939 2.894980
v -1.374096 0.827775 2.117200
v -1.109115 -0.187939 2.894980
v -1.109115 0.827775 2.117200
v -0.843166 -0.187939 2.894980
v -0.843167 0.827775 2.117200
v -0.588877 -0.187939 2.894980
v -0.588878 0.827775 2.117200
v -0.323993 -0.187939 2.894980
v -0.323993 0.827775 2.117200
v -0.057784 -0.187939 2.894980
v -0.057784 0.827775 2.117200
v 1.551569 0.031296 2.727102
v 1.551569 0.827775 2.117200
v 1.286873 0.827775 2.117200
v 1.286873 -0.187939 2.894980
v 1.030747 0.827775 2.117200
v 1.030747 -0.187939 2.894980
v 0.763950 0.827775 2.117200
v 0.763950 -0.187939 2.894980
v 0.493643 0.827775 2.117200
v 0.493643 -0.187939 2.894980
v 0.217929 0.827775 2.117200
v 0.217929 -0.187939 2.894980
v -0.588878 0.820481 2.107674
v -0.588877 -0.195233 2.885455
v -0.323993 0.820481 2.107674
v -0.323993 -0.195233 2.885455
v -0.057784 0.820481 2.107674
v -0.057784 -0.195233 2.885455
v 0.217929 -0.195233 2.885455
v 0.217929 0.820481 2.107674
v -0.588877 -0.262799 2.797221
v -0.323993 -0.262799 2.797221
v -0.057784 -0.262799 2.797221
v 0.217929 -0.262799 2.797221
vt 0.591155 0.000000
vt 0.625000 0.000000
vt 0.625000 0.250000
vt 0.591155 0.250000
vt 0.591155 0.482916
vt 0.625000 0.482916
vt 0.625000 0.500000
vt 0.591155 0.500000
vt 0.625000 0.750000
vt 0.591155 0.750000
vt 0.591155 0.981534
vt 0.625000 0.981534
vt 0.625000 1.000000
vt 0.591155 1.000000
vt 0.357916 0.500000
vt 0.375000 0.500000
vt 0.375000 0.750000
vt 0.357916 0.750000
vt 0.856534 0.500000
vt 0.875000 0.500000
vt 0.875000 0.750000
vt 0.856534 0.750000
vt 0.838778 0.500000
vt 0.838778 0.750000
vt 0.125000 0.500000
vt 0.143466 0.500000
vt 0.143466 0.750000
vt 0.125000 0.750000
vt 0.591155 0.963778
vt 0.625000 0.963778
vt 0.625000 0.268466
vt 0.591155 0.268466
vt 0.591155 0.945964
vt 0.625000 0.945964
vt 0.820964 0.500000
vt 0.820964 0.750000
vt 0.161222 0.500000
vt 0.161222 0.750000
vt 0.625000 0.286222
vt 0.591155 0.286222
vt 0.803084 0.500000
vt 0.803084 0.750000
vt 0.591155 0.928084
vt 0.625000 0.928084
vt 0.179036 0.500000
vt 0.179036 0.750000
vt 0.625000 0.304036
vt 0.591155 0.304036
vt 0.591155 0.910988
vt 0.625000 0.910988
vt 0.785988 0.500000
vt 0.785988 0.750000
vt 0.196916 0.500000
vt 0.196916 0.750000
vt 0.625000 0.321916
vt 0.591155 0.321916
vt 0.214012 0.500000
vt 0.214012 0.750000
vt 0.625000 0.339012
vt 0.591155 0.339012
vt 0.231821 0.500000
vt 0.231821 0.750000
vt 0.625000 0.356821
vt 0.591155 0.356821
vt 0.249718 0.500000
vt 0.249718 0.750000
vt 0.625000 0.374718
vt 0.591155 0.374718
vt 0.625000 0.767084
vt 0.591155 0.767084
vt 0.642084 0.500000
vt 0.642084 0.750000
vt 0.340120 0.500000
vt 0.340120 0.750000
vt 0.591155 0.465120
vt 0.625000 0.465120
vt 0.591155 0.447901
vt 0.625000 0.447901
vt 0.322901 0.500000
vt 0.322901 0.750000
vt 0.625000 0.784880
vt 0.591155 0.784880
vt 0.659880 0.500000
vt 0.659880 0.750000
vt 0.304964 0.500000
vt 0.304964 0.750000
vt 0.591155 0.429964
vt 0.625000 0.429964
vt 0.625000 0.802099
vt 0.591155 0.802099
vt 0.677099 0.500000
vt 0.677099 0.750000
vt 0.591155 0.411791
vt 0.625000 0.411791
vt 0.286791 0.500000
vt 0.286791 0.750000
vt 0.625000 0.820036
vt 0.591155 0.820036
vt 0.695036 0.500000
vt 0.695036 0.750000
vt 0.268255 0.500000
vt 0.268255 0.750000
vt 0.591155 0.393255
vt 0.625000 0.393255
vt 0.625000 0.838209
vt 0.591155 0.838209
vt 0.713209 0.500000
vt 0.713209 0.750000
vt 0.625000 0.856745
vt 0.591155 0.856745
vt 0.731745 0.500000
vt 0.731745 0.750000
vt 0.518631 0.393255
vt 0.518631 0.411791
vt 0.375000 0.374718
vt 0.518631 0.374718
vt 0.375000 0.393255
vt 0.375000 0.820036
vt 0.518631 0.820036
vt 0.518631 0.838209
vt 0.375000 0.838209
vt 0.375000 0.411791
vt 0.375000 0.802099
vt 0.518631 0.802099
vt 0.518631 0.429964
vt 0.375000 0.429964
vt 0.375000 0.784880
vt 0.518631 0.784880
vt 0.518631 0.447901
vt 0.375000 0.447901
vt 0.375000 0.767084
vt 0.518631 0.767084
vt 0.518631 0.465120
vt 0.375000 0.465120
vt 0.518631 0.482916
vt 0.375000 0.482916
vt 0.518631 0.750000
vt 0.375000 0.356821
vt 0.518631 0.356821
vt 0.375000 0.339012
vt 0.518631 0.339012
vt 0.375000 0.321916
vt 0.518631 0.321916
vt 0.518631 0.856745
vt 0.375000 0.304036
vt 0.518631 0.304036
vt 0.375000 0.910988
vt 0.518631 0.910988
vt 0.518631 0.928084
vt 0.375000 0.928084
vt 0.375000 0.286222
vt 0.518631 0.286222
vt 0.518631 0.945964
vt 0.375000 0.945964
vt 0.375000 0.268466
vt 0.518631 0.268466
vt 0.518631 0.963778
vt 0.375000 0.963778
vt 0.375000 0.250000
vt 0.518631 0.250000
vt 0.518631 0.981534
vt 0.375000 0.981534
vt 0.518631 1.000000
vt 0.375000 1.000000
vt 0.518631 0.500000
vt 0.375000 0.000000
vt 0.518631 0.000000
vt 0.591155 0.875282
vt 0.518631 0.875282
vt 0.591155 0.893179
vt 0.518631 0.893179
vt 0.768179 0.500000
vt 0.785988 0.500000
vt 0.785988 0.750000
vt 0.768179 0.750000
vt 0.591155 0.893179
vt 0.625000 0.893179
vt 0.625000 0.910988
vt 0.591155 0.910988
vt 0.591155 0.875282
vt 0.625000 0.875282
vt 0.750282 0.500000
vt 0.750282 0.750000
vt 0.731745 0.500000
vt 0.731745 0.750000
vt 0.591155 0.856745
vt 0.625000 0.856745
vn -1.0000 -0.0000 0.0000
vn 0.0000 0.7940 -0.6080
vn 1.0000 0.0000 0.0000
vn -0.8898 -0.3624 0.2775
vn 0.0000 -0.6080 -0.7940
vn 0.0000 0.6080 0.7940
vn -0.7227 -0.5488 0.4202
vn 0.0000 -0.7940 0.6080
vn 0.9046 -0.3384 0.2591
vn 0.7219 -0.5494 0.4207
usemtl None
s off
f 181/152/32 94/153/32 96/154/32 182/155/32
f 200/156/33 127/157/33 100/158/33 183/159/33
f 183/159/34 100/158/34 98/160/34 184/161/34
f 185/162/35 104/163/35 94/164/35 181/165/35
f 129/166/36 99/167/36 97/168/36 128/169/36
f 102/170/37 96/171/37 94/172/37 104/173/37
f 105/174/37 102/170/37 104/173/37 108/175/37
f 95/176/36 101/177/36 103/178/36 93/179/36
f 187/180/38 108/181/38 104/163/38 185/162/38
f 182/155/33 96/154/33 102/182/33 186/183/33
f 189/184/39 112/185/39 108/181/39 187/180/39
f 109/186/37 105/174/37 108/175/37 112/187/37
f 101/177/36 107/188/36 106/189/36 103/178/36
f 186/183/33 102/182/33 105/190/33 188/191/33
f 113/192/37 109/186/37 112/187/37 116/193/37
f 191/194/39 116/195/39 112/185/39 189/184/39
f 107/188/36 111/196/36 110/197/36 106/189/36
f 188/191/33 105/190/33 109/198/33 190/199/33
f 193/200/39 120/201/39 116/195/39 191/194/39
f 117/202/37 113/192/37 116/193/37 120/203/37
f 111/196/36 115/204/36 114/205/36 110/197/36
f 190/199/33 109/198/33 113/206/33 192/207/33
f 115/204/36 119/208/36 118/209/36 114/205/36
f 192/207/33 113/206/33 117/210/33 194/211/33
f 119/208/36 123/212/36 122/213/36 118/209/36
f 194/211/33 117/210/33 121/214/33 196/215/33
f 123/212/36 126/216/36 125/217/36 122/213/36
f 196/215/33 121/214/33 124/218/33 198/219/33
f 184/161/40 98/160/40 130/220/40 199/221/40
f 100/158/37 127/222/37 130/223/37 98/160/37
f 131/224/36 129/166/36 128/169/36 134/225/36
f 201/226/33 133/227/33 127/157/33 200/156/33
f 203/228/33 137/229/33 133/227/33 201/226/33
f 135/230/36 131/224/36 134/225/36 138/231/36
f 199/221/41 130/220/41 132/232/41 202/233/41
f 127/222/37 133/234/37 132/235/37 130/223/37
f 139/236/36 135/230/36 138/231/36 142/237/36
f 205/238/33 141/239/33 137/229/33 203/228/33
f 202/233/39 132/232/39 136/240/39 204/241/39
f 133/234/37 137/242/37 136/243/37 132/235/37
f 207/244/33 145/245/33 141/239/33 205/238/33
f 143/246/36 139/236/36 142/237/36 146/247/36
f 204/241/39 136/240/39 140/248/39 206/249/39
f 137/242/37 141/250/37 140/251/37 136/243/37
f 147/252/36 143/246/36 146/247/36 150/253/36
f 209/254/33 149/255/33 145/245/33 207/244/33
f 206/249/39 140/248/39 144/256/39 208/257/39
f 141/250/37 145/258/37 144/259/37 140/251/37
f 198/219/33 124/218/33 149/255/33 209/254/33
f 126/216/36 147/252/36 150/253/36 125/217/36
f 208/257/39 144/256/39 148/260/39 210/261/39
f 145/258/37 149/262/37 148/263/37 144/259/37
f 179/264/33 209/254/33 207/244/33 177/265/33
f 126/266/33 168/267/33 179/264/33 147/268/33
f 142/269/39 176/270/39 178/271/39 146/272/39
f 147/268/33 179/264/33 177/265/33 143/273/33
f 138/274/39 174/275/39 176/270/39 142/269/39
f 143/273/33 177/265/33 175/276/33 139/277/33
f 134/278/39 172/279/39 174/275/39 138/274/39
f 139/277/33 175/276/33 173/280/33 135/281/33
f 128/282/41 169/283/41 172/279/41 134/278/41
f 135/281/33 173/280/33 171/284/33 131/285/33
f 131/285/33 171/284/33 170/286/33 129/287/33
f 97/168/40 154/288/40 169/283/40 128/282/40
f 123/289/33 166/290/33 168/267/33 126/266/33
f 176/270/39 206/249/39 208/257/39 178/271/39
f 119/291/33 164/292/33 166/290/33 123/289/33
f 168/267/33 198/219/33 209/254/33 179/264/33
f 115/293/33 162/294/33 164/292/33 119/291/33
f 178/271/39 208/257/39 210/261/39 180/295/39
f 111/296/33 160/297/33 162/294/33 115/293/33
f 118/298/39 163/299/39 161/300/39 114/301/39
f 107/302/33 158/303/33 160/297/33 111/296/33
f 114/301/39 161/300/39 159/304/39 110/305/39
f 101/306/33 156/307/33 158/303/33 107/302/33
f 110/305/39 159/304/39 157/308/39 106/309/39
f 95/310/33 152/311/33 156/307/33 101/306/33
f 106/309/38 157/308/38 155/312/38 103/313/38
f 103/313/35 155/312/35 151/314/35 93/315/35
f 99/167/34 153/316/34 154/288/34 97/168/34
f 129/287/33 170/286/33 153/316/33 99/167/33
f 93/317/32 151/318/32 152/311/32 95/310/32
f 174/275/39 204/241/39 206/249/39 176/270/39
f 177/265/33 207/244/33 205/238/33 175/276/33
f 172/279/39 202/233/39 204/241/39 174/275/39
f 175/276/33 205/238/33 203/228/33 173/280/33
f 169/283/41 199/221/41 202/233/41 172/279/41
f 173/280/33 203/228/33 201/226/33 171/284/33
f 171/284/33 201/226/33 200/156/33 170/286/33
f 154/288/40 184/161/40 199/221/40 169/283/40
f 166/290/33 196/215/33 198/219/33 168/267/33
f 180/295/39 210/261/39 197/319/39 167/320/39
f 164/292/33 194/211/33 196/215/33 166/290/33
f 167/320/39 197/319/39 195/321/39 165/322/39
f 162/294/33 192/207/33 194/211/33 164/292/33
f 165/322/39 195/321/39 193/200/39 163/299/39
f 160/297/33 190/199/33 192/207/33 162/294/33
f 163/299/39 193/200/39 191/194/39 161/300/39
f 158/303/33 188/191/33 190/199/33 160/297/33
f 161/300/39 191/194/39 189/184/39 159/304/39
f 156/307/33 186/183/33 188/191/33 158/303/33
f 159/304/39 189/184/39 187/180/39 157/308/39
f 152/311/33 182/155/33 186/183/33 156/307/33
f 157/308/38 187/180/38 185/162/38 155/312/38
f 155/312/35 185/162/35 181/165/35 151/314/35
f 153/316/34 183/159/34 184/161/34 154/288/34
f 170/286/33 200/156/33 183/159/33 153/316/33
f 151/318/32 181/152/32 182/155/32 152/311/32
f 213/323/37 211/324/37 212/325/37 214/326/37
f 220/327/39 214/328/39 212/329/39 219/330/39
f 221/331/39 216/332/39 214/328/39 220/327/39
f 215/333/37 213/323/37 214/326/37 216/334/37
f 218/335/37 215/333/37 216/334/37 217/336/37
f 222/337/39 217/338/39 216/332/39 221/331/39
